<?xml version="1.0" encoding="utf-8"?>
<!-- Generator: Adobe Illustrator 17.0.0, SVG Export Plug-In . SVG Version: 6.00 Build 0)  -->
<!DOCTYPE svg PUBLIC "-//W3C//DTD SVG 1.1//EN" "http://www.w3.org/Graphics/SVG/1.1/DTD/svg11.dtd">
<svg version="1.1" id="_x31_" xmlns="http://www.w3.org/2000/svg" xmlns:xlink="http://www.w3.org/1999/xlink" x="0px" y="0px"
	 width="1000px" height="765px" viewBox="0 0 1000 765" enable-background="new 0 0 1000 765" xml:space="preserve">
<g>
	<g>
		<path fill="#D5A7EA" d="M520.6,199.112l0.904,2.387c-1.141,0.429-5.393,1.961-12.351,3.697l-0.623-2.468
			C515.354,201.023,519.49,199.53,520.6,199.112z M496.155,205.361l0.46,2.51c-4.15,0.739-8.414,1.368-12.674,1.866l-0.304-2.536
			C487.85,206.716,492.062,206.094,496.155,205.361z M471.027,208.295l0.149,2.541c-4.249,0.239-8.556,0.354-12.799,0.343
			l-0.006-2.548C462.57,208.646,466.825,208.527,471.027,208.295z M445.721,208.217l-0.148,2.54
			c-4.26-0.263-8.551-0.666-12.756-1.188l0.305-2.53C437.275,207.556,441.517,207.954,445.721,208.217z M264.598,84.729l0.298,0.507
			l-2.191,1.289l-0.301-0.513L264.598,84.729z M420.616,205.09l-0.457,2.503c-4.192-0.786-8.405-1.717-12.519-2.762l0.618-2.469
			C412.322,203.394,416.479,204.311,420.616,205.09z M271.528,96.075c2.289,3.593,4.651,7.15,7.029,10.585l-2.091,1.445
			c-2.393-3.462-4.779-7.047-7.083-10.666L271.528,96.075z M285.998,116.951c2.569,3.409,5.214,6.759,7.864,9.968l-1.961,1.62
			c-2.671-3.237-5.343-6.622-7.935-10.056L285.998,116.951z M396.097,198.86l-0.772,2.429c-4.046-1.309-8.103-2.764-12.067-4.323
			l0.925-2.37C388.095,196.139,392.104,197.575,396.097,198.86z M302.165,136.522c2.858,3.153,5.802,6.244,8.751,9.191l-1.799,1.801
			c-2.975-2.977-5.948-6.104-8.836-9.285L302.165,136.522z M372.561,189.583l-1.076,2.304c-3.837-1.801-7.681-3.756-11.428-5.81
			l1.213-2.234C364.975,185.873,368.772,187.804,372.561,189.583z M320.113,154.445c3.153,2.842,6.402,5.612,9.647,8.23
			l-1.593,1.984c-3.283-2.652-6.566-5.448-9.756-8.323L320.113,154.445z M350.362,177.422l-1.353,2.152
			c-3.581-2.252-7.16-4.663-10.634-7.15l1.475-2.072C343.285,172.811,346.822,175.192,350.362,177.422z"/>
	</g>
	<g>
		<path fill="#FFD576" d="M336.042,573.319l-1.221,2.286c-1.108-0.545-5.19-2.622-11.277-6.545l1.475-2.134
			C330.988,570.773,334.963,572.79,336.042,573.319z M314.543,559.642l-1.617,2.042c-3.404-2.539-6.799-5.238-10.091-8.025
			l1.745-1.946C307.831,554.47,311.186,557.137,314.543,559.642z M295.131,543.206l-1.854,1.839
			c-3.085-2.955-6.114-6.035-9.003-9.155l1.957-1.735C289.088,537.244,292.081,540.284,295.131,543.206z M277.915,524.594
			l-2.057,1.619c-2.707-3.303-5.324-6.726-7.792-10.165l2.154-1.496C272.657,517.95,275.247,521.331,277.915,524.594z
			 M249.331,307.767l-0.188,0.561l-2.487-0.729l0.188-0.57L249.331,307.767z M263.183,504.055l-2.239,1.367
			c-2.257-3.61-4.415-7.333-6.42-11.061l2.324-1.225C258.828,496.816,260.959,500.49,263.183,504.055z M245.328,320.565
			c-1.202,4.123-2.329,8.274-3.351,12.354l-2.54-0.551c1.033-4.11,2.163-8.298,3.377-12.449L245.328,320.565z M239.135,345.375
			c-0.87,4.203-1.644,8.423-2.304,12.547l-2.585-0.337c0.668-4.159,1.449-8.421,2.323-12.657L239.135,345.375z M251.241,481.833
			l-2.397,1.087c-1.754-3.856-3.404-7.822-4.909-11.793l2.455-0.932C247.873,474.113,249.504,478.032,251.241,481.833z
			 M235.106,370.544c-0.476,4.241-0.847,8.501-1.102,12.67l-2.614-0.094c0.262-4.208,0.638-8.514,1.117-12.798L235.106,370.544z
			 M242.314,458.264l-2.508,0.777c-1.232-4.039-2.353-8.186-3.329-12.332l2.548-0.63
			C239.992,450.178,241.099,454.273,242.314,458.264z M233.561,395.898c-0.036,4.245,0.049,8.513,0.25,12.673l-2.614,0.18
			c-0.2-4.21-0.289-8.521-0.254-12.814L233.561,395.898z M236.523,433.711l-2.581,0.472c-0.711-4.157-1.298-8.423-1.753-12.663
			l2.6-0.327C235.239,425.385,235.822,429.598,236.523,433.711z"/>
	</g>
	<g>
		<path fill="#FFD576" d="M647.561,555.873l1.583,1.64c-1.094,0.892-5.188,4.153-12.095,8.831l-1.308-1.839
			C642.514,559.919,646.496,556.741,647.561,555.873z M623.342,572.434l1.144,1.946c-4.195,2.535-8.543,5.027-12.918,7.402
			l-0.987-2.041C614.908,577.396,619.203,574.934,623.342,572.434z M597.526,586.449l0.827,2.118
			c-4.434,2.147-8.959,4.22-13.455,6.151l-0.675-2.19C588.671,590.62,593.141,588.573,597.526,586.449z M570.73,597.959l0.51,2.253
			c-4.575,1.724-9.222,3.34-13.81,4.811l-0.344-2.314C561.62,601.254,566.214,599.656,570.73,597.959z M346.607,574.578l0.448,0.301
			l-1.979,2.111l-0.454-0.304L346.607,574.578z M543.345,606.753l0.176,2.363c-4.645,1.242-9.346,2.368-13.975,3.349l0.005-2.406
			C534.123,609.088,538.762,607.975,543.345,606.753z M356.924,581.169c3.368,2.042,6.803,4.025,10.222,5.892l-1.832,2.199
			c-3.441-1.884-6.909-3.875-10.3-5.938L356.924,581.169z M377.725,592.508c3.614,1.759,7.295,3.432,10.943,4.976l-1.649,2.291
			c-3.677-1.56-7.395-3.25-11.041-5.017L377.725,592.508z M515.763,612.609l-0.177,2.444c-4.625,0.724-9.301,1.328-13.906,1.799
			l0.355-2.46C506.58,613.93,511.2,613.331,515.763,612.609z M399.979,601.95c3.854,1.403,7.781,2.716,11.676,3.904l-1.428,2.37
			c-3.932-1.2-7.899-2.528-11.792-3.945L399.979,601.95z M488.421,615.396l-0.532,2.474c-4.533,0.205-9.115,0.282-13.619,0.229
			l0.695-2.479C479.418,615.675,483.943,615.597,488.421,615.396z M423.685,609.159c4.083,1.004,8.249,1.9,12.372,2.666
			l-1.163,2.435c-4.171-0.779-8.381-1.683-12.511-2.697L423.685,609.159z M461.733,615.088l-0.864,2.471
			c-4.38-0.299-8.803-0.736-13.131-1.288l1.015-2.455C453.031,614.361,457.402,614.788,461.733,615.088z"/>
	</g>
	<g>
		<path fill="#FFD576" d="M728.275,283.819l2.428-1.708c0.647,0.865,2.989,4.114,5.994,9.722l-2.557,1.483
			C731.193,287.82,728.905,284.659,728.275,283.819z M738.995,303.461l2.628-1.355c1.474,3.455,2.846,7.056,4.076,10.698
			l-2.685,1.225C741.804,310.422,740.449,306.866,738.995,303.461z M746.244,324.959l2.717-1.087
			c0.948,3.731,1.776,7.563,2.453,11.384l-2.741,0.957C748.002,332.432,747.183,328.651,746.244,324.959z M750.282,347.746
			l2.762-0.816c0.412,3.928,0.675,7.939,0.794,11.917l-2.774,0.674C750.947,355.592,750.684,351.626,750.282,347.746z
			 M646.648,556.933l0.498-0.461l1.745,1.488l-0.502,0.464L646.648,556.933z M750.998,371.499l2.773-0.528
			c-0.163,4.066-0.483,8.202-0.94,12.294l-2.764,0.369C750.519,379.595,750.83,375.51,750.998,371.499z M657.751,546.448
			c3.5-3.406,6.95-6.865,10.267-10.291l1.898,1.34c-3.343,3.448-6.818,6.938-10.347,10.367L657.751,546.448z M677.9,525.606
			c3.255-3.587,6.438-7.225,9.462-10.808l2.065,1.157c-3.052,3.613-6.264,7.285-9.547,10.905L677.9,525.606z M748.275,395.883
			l2.742-0.215c-0.75,4.129-1.658,8.324-2.696,12.474l-2.704,0.058C746.644,404.101,747.542,399.957,748.275,395.883z
			 M696.364,503.731c2.935-3.753,5.788-7.56,8.485-11.315l2.235,0.941c-2.73,3.793-5.612,7.636-8.572,11.427L696.364,503.731z
			 M742.108,420.527l2.657,0.106c-1.317,4.124-2.798,8.313-4.404,12.454l-2.602-0.254
			C739.342,428.741,740.803,424.603,742.108,420.527z M712.768,480.869c2.549-3.9,5.005-7.859,7.298-11.762l2.398,0.69
			c-2.323,3.946-4.804,7.948-7.384,11.893L712.768,480.869z M732.609,445.051l2.541,0.41c-1.846,4.064-3.861,8.187-5.979,12.246
			l-2.472-0.551C728.792,453.146,730.782,449.073,732.609,445.051z"/>
	</g>
	<path fill="#443A32" d="M682.391,710.193c0-2.813,3.897-5.092-234.19-5.092c-238.084,0-234.186,2.279-234.186,5.091
		c0,2.813-3.898,5.092,234.186,5.092C686.287,715.284,682.391,713.005,682.391,710.193z"/>
	<g>
		<polygon fill="#FFF2BB" points="283.39,236.368 314.178,276.09 259.46,321.292 223.827,287.351 		"/>
		<path fill="#FCE7B4" d="M267.608,289.597c-7.759,6.288-8.056,19.388-13.431,26.708l-30.351-28.954l59.563-50.982l28.345,36.569
			C300.647,273.67,282.677,277.392,267.608,289.597z"/>
		<polygon fill="#F2C697" points="283.39,236.368 272.227,287.005 223.827,287.351 		"/>
		<polygon fill="#FFF2BB" points="283.39,236.368 270.681,285.606 223.827,287.351 		"/>
		<g>
			<polygon fill="#F2C697" points="223.827,287.351 223.941,287.257 259.863,320.257 313.386,276.15 283.226,237.29 
				256.403,259.474 283.39,236.368 314.178,276.09 259.46,321.292 			"/>
			<polygon fill="#F2C697" points="223.396,286.76 256.403,259.474 223.941,287.257 			"/>
		</g>
		<path fill="#FFF2BB" d="M309.176,273.353c-4.063,0.592-18.039,2.07-27.51,3.781c-3.594,0.648,6.134-31.893,6.134-31.893
			L309.176,273.353z"/>
		<path fill="#FFF2BB" d="M227.757,289.494c3.783-0.98,24.992,0.956,31.903,0.749c2.662-0.08-5.171,24.328-5.171,24.328
			L227.757,289.494z"/>
	</g>
	<g>
		<g>
			<path fill="#9E8F88" d="M484.257,695.795c0-7.563-6.131-13.69-13.694-13.69c-7.559,0-13.69,6.128-13.69,13.69
				c0,7.561,6.131,13.691,13.69,13.691C478.126,709.486,484.257,703.356,484.257,695.795z"/>
			<circle fill="#84726B" cx="470.565" cy="695.795" r="9.182"/>
			<rect x="468.004" y="674.484" fill="#84726B" width="5.126" height="23.171"/>
			<circle fill="#5B4C48" cx="470.566" cy="695.795" r="6.914"/>
			<path fill="#9E8F88" d="M474.196,695.795c0-2.008-1.624-3.633-3.633-3.633c-2.005,0-3.629,1.625-3.629,3.633
				c0,2.006,1.624,3.634,3.629,3.634C472.572,699.429,474.196,697.801,474.196,695.795z"/>
		</g>
		<g>
			<path fill="#9E8F88" d="M600.226,695.795c0-7.563-6.134-13.69-13.692-13.69c-7.564,0-13.693,6.128-13.693,13.69
				c0,7.561,6.13,13.691,13.693,13.691C594.092,709.486,600.226,703.356,600.226,695.795z"/>
			<circle fill="#84726B" cx="586.532" cy="695.795" r="9.183"/>
			<rect x="583.97" y="677.457" fill="#84726B" width="5.126" height="20.198"/>
			<path fill="#5B4C48" d="M593.445,695.795c0-3.82-3.091-6.916-6.912-6.916c-3.822,0-6.912,3.096-6.912,6.916
				c0,3.818,3.09,6.917,6.912,6.917C590.354,702.712,593.445,699.613,593.445,695.795z"/>
			<circle fill="#9E8F88" cx="586.533" cy="695.795" r="3.633"/>
		</g>
		<g>
			<circle fill="#9E8F88" cx="363.014" cy="695.795" r="13.692"/>
			<circle fill="#84726B" cx="363.014" cy="695.795" r="9.182"/>
			<rect x="360.451" y="677.457" fill="#84726B" width="5.129" height="20.198"/>
			<path fill="#5B4C48" d="M369.929,695.795c0-3.82-3.096-6.916-6.915-6.916c-3.821,0-6.91,3.096-6.91,6.916
				c0,3.818,3.089,6.918,6.91,6.918C366.833,702.713,369.929,699.613,369.929,695.795z"/>
			<circle fill="#9E8F88" cx="363.014" cy="695.795" r="3.631"/>
		</g>
		<rect x="470.28" y="530.057" fill="#84726B" width="6.419" height="122.469"/>
		<rect x="471.375" y="592.254" fill="#9E8F88" width="3.206" height="60.886"/>
		<polygon fill="#84726B" points="587.144,530.79 375.22,530.79 375.22,557.188 562.226,557.188 		"/>
		<polygon fill="#9E8F88" points="484.668,642.259 462.313,642.259 356.52,678.56 590.458,678.56 		"/>
		<path fill="#84726B" d="M489.333,664.646c0,5.785-16.408,10.888-41.382,13.914h142.507l-105.79-36.301h-13.995
			C487.812,648.181,489.333,658.356,489.333,664.646z"/>
		<rect x="355.632" y="675.716" fill="#84726B" width="234.826" height="3.691"/>
		<path fill="#6D5C54" d="M659.21,171.864c-0.746-0.034-166.223,0.02-166.714,0c-8.863-0.386-17.514,18.874-19.477,44.002
			L428.02,463.734c-2.229,12.286-12.934,21.224-25.419,21.224h-48.557c-34.191,0-33.874,64.901,7.884,64.901h203.228
			c21.265,0,38.501-17.24,38.501-38.501l42.441-250.974c1.862,2.78,4.031,4.417,6.442,4.523
			c8.952,0.388,17.702-19.969,19.543-45.473C673.922,193.93,668.164,172.253,659.21,171.864z"/>
		<polygon fill="#594740" points="439.297,406.268 471.285,360.744 451.187,435.383 		"/>
		<path fill="#594740" d="M604.082,253.698l1.841-0.523l-2.584-7.07l-2.88,0.21l2.271-13.349c0.21-0.447,0.41-0.898,0.628-1.344
			c0.603,0.214,1.398,0.141,2.394-0.3c8.512-3.812,17.671-9.134,18.219-18.207c0.273-4.481-2.025-5.911-5.154-5.418
			c8.644-11.545,15.729-20.277,10.63-21.87c-5.216-0.564-2.545-8.909-0.947-11.356c0.266-0.413,0.914-1.362,1.752-2.62
			c-20.548,0-52.203,0.009-80.684,0.014c0.115,4.399,1.311,8.191,4.374,10.393c0,0-4.841,18.587,1.192,26.012
			c-2.969,17.687-6.364,42.73-5.2,45.791c0.476,1.255,3.781,2.005,8.229,2.356l-1.819,4.567l-3.526-0.528l-2.92,6.56l1.296,1.467
			c-1.91,0.222-3.751,0.49-5.502,0.81l0.352-3.788c0,0-15.705,3.71-25.512,8.126c-0.101-0.04-0.201-0.101-0.307-0.124
			c-10.508-2.057-38.944,84.511-51.69,98.311c-2.541,2.749,3.103,19.259,11.883,21.902c-10.255,19.95-21.253,41.323-22.398,43.433
			c-1.341,2.473-16.377,7.719-27.837,11.416l-0.98,6.183c13.619,1.919,36.034,3.639,52.809-2.259
			c11.135,0.065,24.536-0.18,37.864-0.346c3.368,1.885,6.834,2.896,9.771,2.673c43.873-3.368,38.594,25.47,51.648,18.682
			c6.47-3.368,5.882-53.18,5.882-53.18s15.52-28.244,30.295-60.117c0.905,11.568,2.405,23.897,4.382,32.52l18.814-135.125
			C633.632,254.466,614.033,253.823,604.082,253.698z"/>
		<path fill="#594740" d="M659.593,171.939c-16.13-1.238-27.45,17.485-35.035,55.613c-20.35,102.302-81.952,185.903-81.952,185.903
			c0,21.264,24.565,88,3.301,88L351.2,501.456c-3.783,0,13.007,48.403,41.752,48.403h172.205c21.265,0,38.501-17.24,38.501-38.501
			l42.441-250.974c1.862,2.78,4.031,4.417,6.442,4.523c8.952,0.388,17.702-19.969,19.543-45.473
			C673.897,194.305,668.322,172.933,659.593,171.939z"/>
		<polygon fill="#847069" points="596.372,429.848 588.99,490.749 595.449,491.673 604.984,430.154 		"/>
		<g>
			<path fill="#6D5C54" d="M601.342,453.672l3.643-23.518l-8.612-0.307l-1.889,15.581
				C596.899,447.787,599.299,450.699,601.342,453.672z"/>
			<path fill="#6D5C54" d="M591.554,469.6l-2.564,21.149l6.459,0.924l3.328-21.467C596.449,470.075,593.91,469.741,591.554,469.6z"
				/>
		</g>
		<path fill="#6D5C54" d="M623.748,424.618c1.832-6.417,8.849-18.147-13.224-18.148c-22.074,0-31.433,11.096-31.433,17.068
			c0,5.976,1.761,10.816,23.834,10.816C619.424,434.354,622.107,430.361,623.748,424.618z"/>
		<path fill="#594740" d="M612.46,402.455c-22.073,0-33.368,15.11-33.368,21.083c0,0.615,0.03,1.212,0.086,1.8
			c4.102-1.393,9.807-2.258,16.117-2.258c12.486,0,22.607,3.375,22.607,7.535c0,0.646-0.267,1.27-0.726,1.862
			c5.913-1.986,8.55-5.328,9.582-8.939C628.588,417.122,634.535,402.455,612.46,402.455z"/>
		<path fill="#607575" d="M450.778,388.221c10.995-8.065,29.311-46.558,33.016-60.082c5.147-18.78,2.86-67.224-4.621-68.763
			c-10.879-2.24-40.151,93.218-50.419,108.248C426.2,371.368,439.576,396.435,450.778,388.221z"/>
		<path fill="#4F5D5E" d="M486.825,285.688c-0.739,7.866-7.114,18.846-10.824,30.968c-1.206,3.945-24.964,72.898-40.208,67.902
			c4.514,5.687,10.424,9.666,15.695,5.802c11-8.068,30.213-47.53,33.919-61.056C488.107,319.451,488.312,301.119,486.825,285.688z"
			/>
		<path fill="#A05A45" d="M553.605,218.752c4.77-25.301,28.42-51.883,19.044-54.902c-5.317-0.612-4.142-9.706-2.983-12.374
			c1.159-2.662,11.906-25.133,6.947-27.134c-4.973-2.01-9.029,4.017-10.867,0.449c-1.848-3.577,2.222-15.629-3.501-17.297
			c-10.433-3.042-5.622-11.829-9.822-15.374c-4.955-4.196-16.07-9.824-21.193-2.985c0,0,0.608-22.558-12.041-18.967
			c-12.64,3.585-14.096,15.696-13.989,22.826c0,0-13.608,4.198-12.102,22.966c0,0-9.876,34.792,3.406,44.001
			c0,0-1.754,23.526,7.742,29.999C513.688,196.398,544.347,245.742,553.605,218.752z"/>
		<path fill="#823F2F" d="M572.649,163.85c-5.317-0.612-4.142-9.706-2.983-12.374c1.159-2.662,11.906-25.133,6.947-27.134
			c-4.973-2.01-9.029,4.017-10.867,0.449c-1.342-2.599,0.424-9.66-0.696-13.974c-4.169,13.748-31.427,10.056-38.039-1.325
			c-4.923,6.153-12.458,6.46-16.764,4.152c-12.304,0.153-11.669,24.376-19.778,15.178c-1.567,10.903-1.931,25.617,6.034,31.138
			c0,0-1.754,23.526,7.742,29.999c9.443,6.438,40.102,55.782,49.36,28.792C558.375,193.451,582.025,166.869,572.649,163.85z"/>
		<polygon fill="#FFCDA4" points="512.172,250.103 516.575,228.104 553.7,201.427 556.725,260.55 		"/>
		<path fill="#3C4142" d="M363.484,506.745c2.202,0,184.072,0,184.072,0c21.271-5.131,42.24-43.582,20.534-55.155
			c-11-5.861-231.005-0.733-239.805,17.602C319.485,487.523,363.484,506.745,363.484,506.745z"/>
		<path fill="#2D3233" d="M568.09,451.59c-7.732-4.121-118.759-2.81-187.082,4.699c-35.014,3.701-38.722,10.944-40.551,20.618
			c-3.206,16.976,23.027,29.838,23.027,29.838c2.202,0,184.072,0,184.072,0C568.826,501.614,589.796,463.163,568.09,451.59z"/>
		<path fill="#EAE6DA" d="M578.356,264.587c-11.001-10.999-67.883-21.388-83.282-9.656c0,0-20.12,136.157-49.454,195.191
			c-4.018,8.083,76.173,1.616,111.815,4.538c3.25,0.266,6.189-1.951,6.815-5.158C570.935,415.234,588.45,274.677,578.356,264.587z"
			/>
		<polygon fill="#D6CCB2" points="491.381,438.52 528.542,261.489 533.037,261.88 508.027,441.39 497.08,451.676 		"/>
		<polygon fill="#D6CCB2" points="506.35,250.626 518.244,266.364 530.241,257.138 538.392,265.594 553.463,257.599 
			554.538,250.011 529.935,251.242 511.477,249.395 		"/>
		<path fill="#D3CAB4" d="M523.935,428.31c-23.693,0-45.674-5.74-63.836-15.536c-4.417,13.984-9.245,26.825-14.478,37.35
			c-4.018,8.083,76.173,1.616,111.815,4.538c3.25,0.266,6.189-1.951,6.815-5.158c1.24-6.351,2.85-16.356,4.586-28.498
			C555.072,425.695,539.896,428.31,523.935,428.31z"/>
		<polygon fill="#3C4142" points="487.486,437.844 526.856,261.288 531.349,261.735 504.096,440.92 493.021,451.073 		"/>
		<path fill="#FFF5CC" d="M482.421,709.837c0,0-28.556-27.842-26.311-42.838c1.019-6.784,7.808-11.6,14.717-5.263
			C477.742,668.073,482.421,709.837,482.421,709.837z"/>
		<path fill="#E0D6BD" d="M470.258,662.385l8.873-28.297l-5.768-5.229l-12.59,31.987
			C462.029,663.486,467.004,665.461,470.258,662.385z"/>
		<path fill="#FFF5CC" d="M400.797,705.771l38.329-31.213c0,0-4.83-15.353-13.217-11.335
			C417.523,667.239,400.797,705.771,400.797,705.771z"/>
		<polygon fill="#E0D6BD" points="422.483,666.488 410.487,637.881 417.254,632.65 432.017,664.644 		"/>
		<path fill="#3C4142" d="M412.124,659.616l16.612-8.303c0,0-51.156-147.55-56.289-151.95c-5.133-4.399-32.431-52.173-47.83-27.238
			C314.435,488.609,411.393,657.419,412.124,659.616z"/>
		<path fill="#2D3233" d="M417.673,656.843l11.063-5.529c0,0-48.383-149.123-53.516-153.522c-3.186-2.73-16-21.584-28.937-29.509
			C346.283,468.282,362.911,547.039,417.673,656.843z"/>
		<path fill="#3C4142" d="M475.389,656.848l-13.128-7.38c0,0,36.609-151.152,41.528-155.642
			c4.916-4.486,27.332-51.479,43.372-26.041C557.768,484.604,476.037,654.606,475.389,656.848z"/>
		<path fill="#2D3233" d="M550.761,467.871c-3.559-5.641-7.606-7.712-11.804-7.492c4.801,21.923-49.791,153.367-67.109,194.879
			l5.178,3.127C477.676,656.144,561.367,484.693,550.761,467.871z"/>
		<path fill="#607575" d="M503.555,250.652l9.536,120.271c0,0-11.662,66.357-34.466,80.667
			c-22.804,14.312-70.406,2.936-70.406,2.936s38.429-11.973,39.894-16.374c1.466-4.399,27.682-85.201,27.682-85.201
			s-6.157-81.949-2.49-88.548C476.97,257.802,503.555,250.652,503.555,250.652z"/>
		<path fill="#4F5D5E" d="M453.736,440.938c1.468-4.401,24.113-82.245,24.113-82.245s-1.847-14.765-4.719-43.474
			c-1.025,23.992-1.434,41.833-1.434,41.833s-23.875,76.206-25.342,80.605c-1.467,4.401-38.135,16.869-38.135,16.869
			s4.287,1.021,10.876,2.062C428.289,453.352,452.549,444.501,453.736,440.938z"/>
		<path fill="#607575" d="M521.155,456.906c-10.863,0.919-32.269-17.05-27.868-33.186c4.399-16.131,15.401-52.064,15.401-52.064
			l46.295-117.426c0,0,40.387-0.471,45.741,5.954c18.334,22.001-28.238,159.138-28.238,159.138s9.539,54.27,3.673,57.936
			C564.328,484.657,564.425,453.238,521.155,456.906z"/>
		<polygon fill="#779695" points="511.477,362.178 553.616,250.524 570.843,254.213 510.862,369.56 		"/>
		<polygon fill="#779695" points="513.938,362.487 505.017,249.294 490.562,254.213 511.783,366.483 		"/>
		<path fill="#4F5D5E" d="M602.391,262.883c-11.862,45.774-46.499,130.721-52.156,145.434c-4.523,11.754-7.669,31.678-2.615,51.779
			c17.588,7.19,19.875,22.58,28.54,17.162c5.866-3.667-3.673-57.936-3.673-57.936S615.888,291.517,602.391,262.883z"/>
		<polygon fill="#3C4142" points="522.255,260.55 526.658,249.554 535.457,249.921 534.908,262.752 527.206,268.253 		"/>
		<polygon fill="#EAE6DA" points="507.377,248.78 509.429,244.065 532.526,248.82 518.406,263.305 		"/>
		<polygon fill="#EAE6DA" points="538.389,261.657 527.758,248.452 558.386,245.756 560.538,250.983 		"/>
		<path fill="#607575" d="M608.424,400.989c-7.883-6.308-21.441-64.84-22.365-78.837c-1.284-19.43,4.284-62.7,12.099-62.7
			c11.368,0,38.993,122.317,37.893,126.718C634.952,390.571,619.424,409.791,608.424,400.989z"/>
		<g>
			<path fill="#4F5D5E" d="M589.3,315.117c-1.322-4.561-3.664-13.62-4.616-17.531c-0.646,7.878-0.368,19.976,0,25.529
				c0.58,8.811,7.548,34.313,13.576,54.286C596.13,357.168,593.899,331.035,589.3,315.117z"/>
			<path fill="#4F5D5E" d="M610.906,283.16c9.717,37.204,20.684,95.782,21.435,113.908c3.593-2.772,6.131-5.712,6.517-7.265
				C639.654,386.621,623.956,319.871,610.906,283.16z"/>
		</g>
		<g>
			<path fill="#FFDEB3" d="M532.931,406.81c-3.458,0.596-17.729,3.825-18.482,4.599c-0.746,0.771-8.871,6.181-7.53,8.338
				c1.348,2.152,8.392-3.85,10.007-4.636c1.618-0.787,3.154,0.243,8.472-0.605C530.722,413.661,538.766,405.799,532.931,406.81z"/>
			<path fill="#FFDEB3" d="M518.346,415.801c-2.86,2.03-7.337,6.847-7.678,7.868c-0.343,1.021-5.337,9.403-3.205,10.767
				c2.145,1.366,6.701-7.654,7.821-9.064c1.12-1.406,3.922-4.192,8.351-7.251C528.065,415.06,523.17,412.376,518.346,415.801z"/>
			<path fill="#FFDEB3" d="M519.23,421.845c-1.374,3.225-4.957,10.031-5.103,11.094c-0.15,1.066-3.483,8.365-1.133,9.314
				c2.353,0.947,5.145-6.897,5.987-8.489c0.841-1.59,3.101-6.714,6.89-10.536C529.659,419.402,519.23,421.845,519.23,421.845z"/>
			<path fill="#FFDEB3" d="M526.44,422.924c-1.473,3.185-5.247,9.88-5.425,10.941c-0.177,1.061-3.725,8.263-1.401,9.274
				c2.323,1.016,5.341-6.745,6.229-8.314c0.886-1.565,3.29-6.618,7.188-10.332C536.926,420.782,526.44,422.924,526.44,422.924z"/>
			<path fill="#FFDEB3" d="M540.392,403.394c0,0-22.15,10.101-23.583,13.79c-1.434,3.692,8.611,13.28,12.099,11.638
				c3.482-1.636,6.974-10.252,17.43-13.738L540.392,403.394z"/>
		</g>
		<path fill="#EAE6DA" d="M535.881,402.369c0.396,7.168,1.471,11.604,6.152,16.815l10.868-2.46l-7.18-19.276L535.881,402.369z"/>
		<g>
			<path fill="#607575" d="M554.541,422.877c-7.141-0.292-16.053-26.434-11.277-29.735c4.28-2.965,76.017-26.217,83.712-25.118
				c5.497,0.783,17.364,22.196,3.54,28.296C621.264,400.404,563.523,423.247,554.541,422.877z"/>
			<path fill="#6C8281" d="M604.215,373.098c-24.192,5.811-58.043,18.032-60.951,20.044c-0.764,0.526-1.156,1.818-1.258,3.606
				C554.748,391.694,581.506,380.06,604.215,373.098z"/>
			<path fill="#4F5D5E" d="M628.446,367.593c2.108,10.882,1.576,25.315-6.852,29.036c-8.597,3.794-57.398,20.063-71.511,22.594
				c1.075,2.319,3.024,3.597,4.458,3.654c8.982,0.37,69.196-20.37,78.45-24.454C646.076,392.65,634.396,370.608,628.446,367.593z"/>
		</g>
		<path fill="#607575" d="M407.305,437.23c-6.414,3.154-25.195-17.88-22.553-23.042c2.376-4.634,42.197-47.563,49.502-50.229
			c5.207-1.904,27.45,5.401,21.632,20.164C452.183,393.533,418.088,431.921,407.305,437.23z"/>
		<path fill="#4F5D5E" d="M457.648,364.177c-2.871,0.103-5.992,8.619-7.382,12.151c-3.706,9.409-36.292,51.76-47.074,57.066
			c-3.069,1.512-9.057-2.908-14.181-8.492c5.523,7.704,14.647,16.02,18.696,14.03c10.783-5.307,45.312-44.788,49.018-54.197
			C459.24,378.353,461.977,367.631,457.648,364.177z"/>
		<polygon fill="#C4A1AA" points="526.428,454.06 426.227,451.533 469.029,462.145 524.397,458.452 		"/>
		<polygon fill="#AA818D" points="526.428,454.06 466.568,458.452 473.487,463.141 527.877,459.609 		"/>
		<path fill="#DDBCC6" d="M408.838,356.507c-7.856-6.054-118.331-3.024-123.674,3.029c-5.348,6.055,59.436,103.604,59.436,103.604
			h128.704C473.304,463.141,416.693,362.563,408.838,356.507z"/>
		<path fill="#E8CDD6" d="M329.384,428.462c0-34.189,33.822-62.965,79.849-71.611c-0.145-0.134-0.275-0.251-0.396-0.344
			c-7.856-6.054-118.331-3.024-123.674,3.029c-3.792,4.297,27.701,54.624,46.33,83.521
			C330.116,438.336,329.384,433.459,329.384,428.462z"/>
		<path fill="#AA818D" d="M408.838,356.507c-3.129-2.413-22.543-3.381-45.105-3.292c20.129,0.083,36.698,1.08,39.566,3.292
			c7.859,6.056,64.468,106.634,64.468,106.634h6.646C474.413,463.141,416.693,362.563,408.838,356.507z"/>
		<path fill="#6D5C54" d="M605.292,500.9c-0.569-4.553-4.97-11.365-14.249-13.02c-9.279-1.656-17.804,0.776-13.533,2.46
			c15.581,6.155,17.223,21.328,19.784,40.705C601.293,531.352,605.909,505.821,605.292,500.9z"/>
		<polygon fill="#6D5C54" points="424.531,549.398 411.817,514.539 471.694,516.179 476.615,549.398 		"/>
		<path fill="#7A9392" d="M508.08,411.348c0.234-2.707-0.948-5.021-2.638-5.166c-1.695-0.145-3.254,1.931-3.49,4.638
			c-0.231,2.71,0.951,5.022,2.643,5.167C506.287,416.133,507.851,414.055,508.08,411.348z"/>
		<path fill="#7A9392" d="M512.696,384.59c0.232-2.71-0.948-5.022-2.643-5.168c-1.694-0.147-3.252,1.932-3.484,4.638
			c-0.235,2.71,0.946,5.021,2.64,5.169C510.899,389.373,512.461,387.296,512.696,384.59z"/>
		<path opacity="0.6" fill="#AF5652" d="M518.858,296.047c24.497,2.978,57.061-23.093,67.311-40.295
			c-4.963-0.636-10.483-1.009-15.487-1.227l0.16-0.312l-11.772-2.523l1.468-0.707l-2.152-5.227l-2.407,0.21l-2.278-44.539
			l-37.125,26.676l-3.351,16.742l-3.796-0.781l-2.052,4.715l1.028,1.352l-2.056,0.493l0.075,0.094
			c-0.427,0.074-0.863,0.141-1.276,0.225l-0.132-1.65l-14.455,4.92l0.099,0.529C490.118,254.938,496.097,293.278,518.858,296.047z"
			/>
		<path fill="#FFDEB3" d="M505.391,238.182c2.273,4.413,32.913,3.121,36.559-0.181c3.648-3.299,14.715-48.123,15.232-51.973
			c0.526-3.853-3.923-54.453-10.176-58.855c-6.246-4.399-39.011-9.805-41.614-2.656c-2.604,7.149-2.725,43.028-2.934,48.767
			C501.935,187.584,503.122,233.783,505.391,238.182z"/>
		<path fill="#823F2F" d="M554.522,130.568c-12.375,0.264,1.102,42.896-7.374,78.379c-1.742,7.278,0.148,8.488,3.533,6.09
			c6.353-4.501,10.347-27.273,10.347-27.273S566.9,130.304,554.522,130.568z"/>
		<path fill="#FFDEB3" d="M553.486,199.377c4.334-9.296,17.239-15.188,17.645-3.632c0.35,9.936-8.258,15.115-16.366,18.68
			C549.873,216.575,549.236,208.504,553.486,199.377z"/>
		<path fill="#F9AD8F" d="M554.715,201.524c2.669-5.71,10.611-9.331,10.853-2.229c0.202,6.104-5.092,9.288-10.083,11.479
			C552.477,212.093,552.093,207.135,554.715,201.524z"/>
		<path fill="#FFDEB3" d="M553.7,206.506c1.589-3.36,6.283-5.49,6.406-1.312c0.102,3.587-3.031,5.463-5.977,6.752
			C552.351,212.723,552.137,209.805,553.7,206.506z"/>
		<path fill="#EAD0D9" d="M377.368,410.776c-2.778-5.704-9.147-10.103-14.221-9.83c-5.079,0.273-6.942,5.117-4.167,10.819
			c2.777,5.702,9.146,10.104,14.22,9.83C378.278,421.322,380.143,416.479,377.368,410.776z"/>
		<path fill="#AA818D" d="M361.031,413.406c-2.777-5.703-0.91-10.548,4.165-10.817c2.529-0.138,5.379,0.887,7.944,2.655
			c-3.017-2.744-6.766-4.472-9.993-4.298c-5.079,0.273-6.942,5.117-4.167,10.819c1.396,2.861,3.694,5.393,6.278,7.173
			C363.536,417.373,362.041,415.48,361.031,413.406z"/>
		<path fill="#EAE6DA" d="M549.311,340.954c0,0,8.92-11.382,12.612-10.766c3.69,0.615,8.611,13.842,8.611,13.842L549.311,340.954z"
			/>
		<polygon fill="#779695" points="547.466,340.03 572.995,342.492 569.612,349.566 546.851,345.261 		"/>
		<path fill="#FFDEB3" d="M523.578,209.407c0,0-14.563,0.822-14.972-0.82c-0.409-1.638,12.099-31.373,12.099-31.373L523.578,209.407
			z"/>
		<path fill="#F9AD8F" d="M510.247,208.176c-0.323-1.3,7.48-20.271,10.719-28.063l-0.261-2.9c0,0-12.508,29.735-12.099,31.373
			c0.408,1.642,14.972,0.82,14.972,0.82l-0.029-0.331C519.724,209.233,510.568,209.476,510.247,208.176z"/>
		<path fill="#604B43" d="M513.631,179.161c0-3.735-1.445-5.996-3.229-5.996c-1.784,0-3.23,2.26-3.23,5.996
			c0,3.737,1.445,6.768,3.23,6.768C512.185,185.929,513.631,182.898,513.631,179.161z"/>
		<path fill="#604B43" d="M535.931,179.161c0-3.735-1.448-5.996-3.232-5.996c-1.778,0-3.226,2.26-3.226,5.996
			c0,3.737,1.447,6.768,3.226,6.768C534.482,185.929,535.931,182.898,535.931,179.161z"/>
		<path fill="#A05A45" d="M503.641,169.109c0.528,0.384,13.25,0.448,13.96-1.271c0.707-1.719,1.511-7.4-0.601-8.134
			c-2.81-0.976-13.086,4.164-13.521,4.949C503.049,165.439,502.218,168.085,503.641,169.109z"/>
		<path fill="#A05A45" d="M541.435,167.474c-0.563,0.4-14.51,0.922-15.353-0.77c-0.845-1.691-1.947-7.339,0.34-8.152
			c3.035-1.075,14.51,3.692,15.014,4.462C541.94,163.782,542.955,166.398,541.435,167.474z"/>
		<path fill="#49312C" d="M511.938,214.997l22.147-2.922c0,0,0,15.995-11.843,15.995
			C511.632,228.069,511.938,214.997,511.938,214.997z"/>
		<path fill="#FFFBEB" d="M531.829,220.085c1.385-3.762,1.726-7.511,1.726-7.511l-20.886,2.755l1.271,5.345L531.829,220.085z"/>
		<path fill="#F9AD8F" d="M527.076,229.928c-0.025-0.537-1.676-0.226-3.853-0.119c-2.176,0.106-4.059-0.032-4.03,0.506
			c0.023,0.537,1.948,1.547,4.123,1.44C525.495,231.646,527.106,230.466,527.076,229.928z"/>
		<polygon fill="#4F5D5E" points="473.643,335.416 485.64,379.096 474.873,361.871 		"/>
		<path fill="#823F2F" d="M546.68,127.057c-1.968,5.968-11.519,3.968-11.519,3.968c9.248,6.88,15.324,3.597,18.29-0.556
			L546.68,127.057z"/>
		<path fill="#823F2F" d="M547.066,123.044c-4.669,4.408-13.716,1.739-13.716,1.739c6.588,6.424,14.339,4.582,19.253,1.7
			L547.066,123.044z"/>
		<path fill="#823F2F" d="M506.558,104.264c0.614,4.92,4.764,9.997,11.38,8.92c6.612-1.077,11.074-8.613,12.612-18.917
			c0,0,2.461,25.81-13.073,25.068C504.558,118.722,506.558,104.264,506.558,104.264z"/>
		<path fill="#823F2F" d="M553.616,93.499c0.464,6.458-3.382,13.84-9.996,13.379c0,0,6.494,5.381,18.625,0.615
			C554.693,105.802,557.769,98.42,553.616,93.499z"/>
	</g>
	<g>
		<path fill="#FFD576" d="M844.014,294.559c17.405-26.997,32.602-112.564,24.203-121.576
			c-13.813-14.822-159.198-15.214-171.016-6.543c-17.05,12.506-22.404,100.467-14.267,113.956
			C695.489,301.208,832.969,311.674,844.014,294.559z"/>
		<polygon fill="#FFD576" points="709.534,253.605 601.761,220.79 711.601,228.858 		"/>
	</g>
	<circle fill="#FFD576" cx="283.288" cy="237.86" r="10.4"/>
	<g>
		<g>
			<polygon fill="#EFD9BD" points="334.6,153.633 332.319,171.82 382.173,236.317 434.327,200.159 380.475,129.689 			"/>
			<polygon fill="#FFF7D4" points="322.882,159.689 382.601,235.051 434.327,200.159 380.475,129.689 			"/>
			<path fill="#FCECCD" d="M401.884,162.311c6.785,7.309,18.056,21.865,24.569,27.554l-45.979-60.176l-57.592,30l6.08,7.671
				c3.346-3.087,22.975-20.725,43.325-21.343C382.628,145.703,392.037,151.713,401.884,162.311z"/>
			<g>
				<polygon fill="#C9B18D" points="366.718,201.499 378.073,194.129 379.168,195.262 367.515,202.593 				"/>
				<polygon fill="#C9B18D" points="353.067,184.428 360.316,179.678 361.3,181.131 354.15,185.971 				"/>
				<polygon fill="#C9B18D" points="361.478,178.827 363.636,177.569 364.621,179.017 362.568,180.375 				"/>
				<g>
					<polygon fill="#C9B18D" points="374.556,202.909 381.86,197.972 383.101,199.229 375.699,204.06 					"/>
					<polygon fill="#C9B18D" points="393.373,192.523 384.287,198.451 383.033,197.186 391.993,191.13 					"/>
					<polygon fill="#C9B18D" points="394.558,191.749 393.164,190.34 396.952,187.775 398.895,188.918 					"/>
					<polygon fill="#C9B18D" points="374.515,204.835 370.852,207.227 370.092,205.926 373.388,203.701 					"/>
				</g>
				<g>
					<polygon fill="#C9B18D" points="387.909,183.667 377.516,190.374 376.276,189.124 386.767,182.515 					"/>
					<polygon fill="#C9B18D" points="369.262,193.746 374.921,190.026 376.177,191.288 370.64,195.143 					"/>
					<polygon fill="#C9B18D" points="368.07,194.525 369.47,195.93 364.785,198.474 363.738,197.355 					"/>
				</g>
				<g>
					<polygon fill="#C9B18D" points="384.776,165.703 378.64,169.796 377.399,168.545 383.632,164.552 					"/>
					<polygon fill="#C9B18D" points="370.383,173.171 376.045,169.445 377.299,170.714 371.763,174.561 					"/>
					<polygon fill="#C9B18D" points="369.198,173.946 370.59,175.357 365.911,177.899 364.859,176.781 					"/>
				</g>
				<g>
					<polygon fill="#C9B18D" points="376.118,150.664 369.983,154.756 368.744,153.504 374.976,149.515 					"/>
					<polygon fill="#C9B18D" points="361.731,158.131 367.384,154.406 368.644,155.68 363.104,159.52 					"/>
					<polygon fill="#C9B18D" points="360.539,158.907 361.936,160.313 357.254,162.865 356.203,161.74 					"/>
				</g>
				<g>
					<polygon fill="#C9B18D" points="381.099,205.628 389.842,199.723 391.281,201.17 382.422,206.955 					"/>
					<polygon fill="#C9B18D" points="399.575,195.756 392.467,200.398 391.017,198.932 398.029,194.196 					"/>
					<polygon fill="#C9B18D" points="379.952,206.436 381.233,207.73 374.215,212.314 373.361,210.858 380.019,206.358 					"/>
					<polygon fill="#C9B18D" points="400.764,194.981 399.195,193.404 403.518,190.49 405.696,191.759 					"/>
				</g>
				<polygon fill="#C9B18D" points="342.608,170.62 353.965,163.253 355.064,164.387 343.406,171.714 				"/>
				<g>
					<polygon fill="#C9B18D" points="350.449,172.033 357.754,167.095 358.994,168.355 351.593,173.186 					"/>
					<polygon fill="#C9B18D" points="369.262,161.643 360.18,167.577 358.92,166.311 367.885,160.255 					"/>
					<polygon fill="#C9B18D" points="370.45,160.871 369.056,159.467 372.844,156.901 374.79,158.036 					"/>
					<polygon fill="#C9B18D" points="350.406,173.96 346.744,176.348 345.983,175.048 349.281,172.825 					"/>
				</g>
				<g>
					<polygon fill="#C9B18D" points="363.801,152.792 353.409,159.496 352.17,158.246 362.659,151.633 					"/>
					<polygon fill="#C9B18D" points="345.152,162.874 350.813,159.149 352.066,160.415 346.535,164.266 					"/>
					<polygon fill="#C9B18D" points="343.967,163.649 345.362,165.058 340.678,167.6 339.626,166.48 					"/>
				</g>
				<g>
					<polygon fill="#C9B18D" points="356.993,174.749 365.739,168.842 367.175,170.292 358.309,176.081 					"/>
					<polygon fill="#C9B18D" points="375.468,164.88 368.361,169.518 366.905,168.059 373.92,163.32 					"/>
					<polygon fill="#C9B18D" points="355.84,175.561 357.124,176.852 350.105,181.441 349.248,179.986 355.911,175.486 					"/>
					<polygon fill="#C9B18D" points="376.654,164.105 375.091,162.524 379.409,159.611 381.587,160.88 					"/>
				</g>
				<g>
					<polygon fill="#C9B18D" points="361.452,185.09 368.753,180.16 369.992,181.407 362.59,186.24 					"/>
					<polygon fill="#C9B18D" points="375.216,177.904 371.182,180.638 369.92,179.371 373.836,176.516 					"/>
					<polygon fill="#C9B18D" points="377.365,176.499 375.973,175.093 383.849,169.96 385.79,171.097 					"/>
					<polygon fill="#C9B18D" points="361.402,187.014 357.742,189.404 356.98,188.107 360.281,185.881 					"/>
				</g>
				<g>
					<polygon fill="#C9B18D" points="366.583,188.32 374.882,182.716 376.25,184.084 367.835,189.583 					"/>
					<polygon fill="#C9B18D" points="384.123,178.945 377.379,183.354 375.998,181.966 382.651,177.467 					"/>
					<polygon fill="#C9B18D" points="365.491,189.09 366.707,190.316 360.047,194.669 359.234,193.285 365.558,189.012 					"/>
					<polygon fill="#C9B18D" points="385.247,178.214 383.762,176.715 387.861,173.946 389.933,175.149 					"/>
				</g>
			</g>
			<polygon fill="#F4D3B8" points="380.475,129.689 349.143,145.95 380.28,130.785 399.255,153.682 			"/>
		</g>
	</g>
	<path fill="#FFCA6C" d="M227.304,318.564c-12.977-7.581-24.396-35.689-7.96-53.62c0,0-23.293,14.06-20.005,30.271
		C202.626,311.428,227.304,318.564,227.304,318.564z"/>
	<path fill="#FFCA6C" d="M316.5,258.672c6.184,6.969,7.49,25.733-5.652,33.128c0,0,16.436-3.789,17.626-13.977
		C329.665,267.637,316.5,258.672,316.5,258.672z"/>
	<circle fill="#D5A7EA" cx="324.202" cy="158.463" r="7.354"/>
	<g>
		<polygon fill="#FFD576" points="292.335,216.919 285.169,200.324 312.7,212.77 		"/>
		<polygon fill="#FFD576" points="316.472,175.435 323.637,192.029 296.106,179.583 		"/>
		<polygon fill="#FFD576" points="292.335,204.851 305.158,181.846 316.848,186.371 303.648,210.885 		"/>
	</g>
	<text transform="matrix(1.0516 0 0 1 705.0009 264.0712)" fill="#594740" font-family="'Mistral'" font-size="49.1941">Message</text>
	
		<text transform="matrix(1.0444 0.1232 -0.1172 0.9931 718.0474 213.4193)" fill="#594740" font-family="'Mistral'" font-size="35.7955">Principal</text>
</g>
</svg>
